<?xml version="1.0" encoding="UTF-8" standalone="no"?>
<svg
   xmlns:dc="http://purl.org/dc/elements/1.1/"
   xmlns:cc="http://creativecommons.org/ns#"
   xmlns:rdf="http://www.w3.org/1999/02/22-rdf-syntax-ns#"
   xmlns:svg="http://www.w3.org/2000/svg"
   xmlns="http://www.w3.org/2000/svg"
   viewBox="0 0 1321.3333 529.35999"
   height="529.35999"
   width="1321.3333"
   xml:space="preserve"
   id="svg2"
   version="1.1"><metadata
     id="metadata8"><rdf:RDF><cc:Work
         rdf:about=""><dc:format>image/svg+xml</dc:format><dc:type
           rdf:resource="http://purl.org/dc/dcmitype/StillImage" /></cc:Work></rdf:RDF></metadata><defs
     id="defs6" /><g
     transform="matrix(1.3333333,0,0,-1.3333333,0,529.36)"
     id="g10"><g
       transform="scale(0.1)"
       id="g12"><path
         id="path14"
         style="fill:#ffffff;fill-opacity:1;fill-rule:nonzero;stroke:none"
         d="m 3648.87,1157.21 c 0,-22.88 -8.26,-42.2 -25.2,-59.18 -17.23,-17.2 -36.43,-25.14 -60.4,-25.14 h -154.4 v 220 h 142.31 c 26.22,0 49.11,-11.57 68.08,-30.5 19.91,-19.94 29.61,-44.56 29.61,-71.17 z m -240,465.68 h 125.89 c 22.6,0 37.87,-7.89 52.69,-22.7 15.36,-15.35 21.93,-32.03 21.93,-53.6 0,-27.03 -7.1,-44.45 -23.74,-61.78 -15.1,-15.78 -35.67,-21.92 -62.98,-21.92 H 3408.87 Z M 3728.85,1391 c 33.56,44.13 50.53,96.09 50.53,154.66 0,66.26 -24.25,125.92 -71.95,173.64 -46.31,47.61 -104.41,73.59 -172.67,73.59 h -239.25 c -33.55,0 -56.64,-27.11 -56.64,-60.68 V 959.691 c 0,-33.05 23.6,-56.8 56.64,-56.8 h 267.76 c 69.83,0 130.36,25 179.88,74.507 50.25,50.222 75.72,110.642 75.72,179.812 v 34.01 c 0,50.65 -14.05,98.51 -41.74,142.08 -13.52,21.98 -29.73,41.35 -48.28,57.7" /><path
         id="path16"
         style="fill:#ffffff;fill-opacity:1;fill-rule:nonzero;stroke:none"
         d="m 4388.87,1186.85 c 0,-37.28 -11.75,-65.34 -38.36,-91.11 -25.84,-25.85 -55.61,-38.42 -91.05,-38.42 -35.46,0 -65.91,12.7 -92.15,38.93 -25.87,25.02 -38.44,53.81 -38.44,90.6 v 314.93 c 0,36.68 12.76,65.96 38.95,92.19 25.06,25.09 55.17,37.3 91.39,37.3 36.24,0 66.12,-12.21 91.16,-37.31 26.23,-26.19 38.5,-55.48 38.5,-92.18 z m 82.27,526.65 c -58.22,58.26 -129.4,87.81 -211.69,87.81 -82.29,0 -154.06,-29.55 -212.29,-87.81 -58.21,-58.23 -88.29,-129.48 -88.29,-211.72 v -314.93 c 0,-82.24 30.1,-153.49 88.31,-211.729 58.23,-58.262 129.75,-87.801 212.04,-87.801 82.29,0 153.57,29.539 211.78,87.801 58.25,58.239 87.87,129.489 87.87,211.729 v 314.93 c 0,82.24 -29.49,153.49 -87.73,211.72" /><path
         id="path18"
         style="fill:#ffffff;fill-opacity:1;fill-rule:nonzero;stroke:none"
         d="m 5908.87,1194.55 c 0,-34.51 -10.62,-61.58 -35.41,-85.57 -24.63,-24.66 -50.98,-36.09 -84.73,-36.09 h -109.86 v 550 h 81.3 c 42.23,0 75.83,-16.17 104.54,-45.74 30.29,-30.28 44.16,-66.6 44.16,-107.22 z m -148.7,598.34 h -190.9 c -33.59,0 -60.4,-27.11 -60.4,-60.68 V 959.691 c 0,-33.05 27.32,-56.8 60.4,-56.8 h 219.46 c 80.05,0 148.58,28.668 205.45,85.488 56.78,56.831 84.69,126.131 84.69,206.171 v 275.38 c 0,87.37 -30.88,165.24 -93.49,227.84 -61.9,61.92 -137.08,95.12 -225.21,95.12" /><path
         id="path20"
         style="fill:#ffffff;fill-opacity:1;fill-rule:nonzero;stroke:none"
         d="m 6318.35,902.891 h 395.06 c 33.01,0 55.46,23.75 55.46,56.8 v 55.989 c 0,33.06 -22.45,57.21 -55.46,57.21 h -284.54 v 220 h 237.34 c 31.89,0 52.66,21.64 52.66,54.16 v 55.96 c 0,33.59 -19.75,59.88 -52.66,59.88 h -237.34 v 160 h 276.85 c 32.5,0 53.15,20.83 53.15,53.36 v 55.96 c 0,33.02 -20.09,60.68 -53.15,60.68 h -387.37 c -33.57,0 -59.48,-27.11 -59.48,-60.68 V 959.691 c 0,-33.05 26.44,-56.8 59.48,-56.8" /><path
         id="path22"
         style="fill:#ffffff;fill-opacity:1;fill-rule:nonzero;stroke:none"
         d="m 7179.21,1342.89 62.58,212.02 63.21,-212.02 z m 167.8,408.67 c -8.13,24.36 -28.69,41.33 -53.66,41.33 h -103.12 c -25.35,0 -45.49,-16.91 -53.93,-42.4 L 6901.93,983.121 c -3.07,-6.762 -4.63,-14.691 -4.63,-22.859 0,-33.043 23.98,-57.371 56.99,-57.371 h 58.17 c 26.4,0 48.28,18.75 54.29,42.75 l 69.3,227.249 h 211.39 l 68.75,-228.8 1.09,-4.121 c 8.98,-22.559 29.1,-37.078 53.89,-37.078 h 58.14 c 32.5,0 57.05,24.398 57.05,56.91 0,8.23 -1.62,16.679 -4.18,21.929 l -235.17,769.83" /><path
         id="path24"
         style="fill:#ffffff;fill-opacity:1;fill-rule:nonzero;stroke:none"
         d="m 8220.41,1792.89 h -55.96 c -33.03,0 -55.58,-27.66 -55.58,-60.68 v -563.98 c 0,-32.22 -10.76,-56.93 -32.54,-77.97 -22.15,-22.16 -47.99,-32.94 -78.3,-32.94 -30.68,0 -54.77,10.61 -77.72,33.5 -21.41,20.72 -31.44,46.75 -31.44,77.41 v 563.98 c 0,33.57 -25.52,60.68 -59.05,60.68 h -56 c -33.04,0 -54.95,-27.66 -54.95,-60.68 v -563.98 c 0,-77.16 26.64,-143.97 81.23,-198.609 54.63,-54.609 120.95,-82.301 198.1,-82.301 77.13,0 144.5,27.789 199.36,82.668 53.66,54.952 81.31,121.642 81.31,198.242 v 563.98 c 0,33.57 -24.91,60.68 -58.46,60.68" /><path
         id="path26"
         style="fill:#ffffff;fill-opacity:1;fill-rule:nonzero;stroke:none"
         d="m 8422.5,980.48 c -7.82,-26.109 1.46,-45.582 7.65,-53.878 6.1,-8.243 20.26,-23.711 46.45,-23.711 h 58.1 c 22.64,0 41.9,14.468 51.17,35.179 l 130.14,238.89 129.75,-238.448 c 9.61,-21.563 28.9,-35.621 51.58,-35.621 h 58.12 c 26.06,0 40.22,15.449 46.33,23.668 6.27,8.339 15.51,27 7.33,54.3 l -200.1,366.661 198.03,362.74 3.75,10.44 c 5.27,23.95 -2.56,41.31 -10.16,50.76 -6.11,7.62 -20.06,21.43 -44.71,21.43 h -57.05 c -23.51,0 -43.16,-13.97 -50.76,-33.49 l -132.11,-241.37 -131.5,240.28 c -8.19,20.86 -27.84,34.58 -51.35,34.58 h -57.03 c -24.75,0 -38.65,-13.79 -44.75,-21.38 -7.6,-9.42 -15.47,-26.22 -9.67,-51.75 l 3.99,-10.54 197.3,-361.16 -197.38,-359.939 -3.12,-7.641" /><path
         id="path28"
         style="fill:#ffffff;fill-opacity:1;fill-rule:nonzero;stroke:none"
         d="m 5128.87,1495.17 c 0,-22.32 -7.17,-40.15 -24.08,-57.05 -16.95,-16.93 -33.68,-25.23 -56.02,-25.23 h -139.9 v 210 h 139.9 c 22.18,0 40.32,-9.22 55.28,-24.16 17.44,-18.2 24.82,-37.34 24.82,-59.67 z m 170,0 v 43.89 c 0,69.17 -24.69,130.8 -73.47,179.57 -48.01,48.05 -107.42,74.26 -176.63,74.26 h -249.06 c -33.56,0 -60.84,-27.11 -60.84,-60.68 V 959.691 c 0,-33.05 27.8,-56.8 60.84,-56.8 h 55.99 c 32.49,0 53.17,24.289 53.17,56.8 v 283.199 h 94.41 l 159.33,-304.921 c 9.63,-21.77 28.99,-35.078 51.76,-35.078 h 58.16 c 26.14,0 40.3,15.211 46.35,23.437 6.23,8.383 15.49,27.004 7.66,53 -0.22,0.703 -0.49,1.742 -0.84,2.41 l -154.61,294.742 c 19.35,11.12 37.55,25.24 54.31,41.97 48.78,48.79 73.47,108.31 73.47,176.72" /><path
         id="path30"
         style="fill:#ffffff;fill-opacity:1;fill-rule:nonzero;stroke:none"
         d="m 2588.87,1580.31 c 0,17.15 4.01,31.7 15.95,43.65 11.95,12.46 25.9,18.19 43.04,18.19 16.63,0 30.77,-5.73 43.25,-18.19 12.47,-11.95 17.76,-26.5 17.76,-43.65 v -78.98 c 0,-17.14 -5.85,-31.69 -18.32,-44.16 -11.96,-11.96 -26.59,-18.19 -43.73,-18.19 -17.14,0 -30.01,6.23 -41.96,18.19 -11.94,12.47 -15.99,27.02 -15.99,44.16 z m 57.87,-179.26 c 22.88,0 43.66,7.27 62.88,22.35 0.53,1.03 1.77,1.03 3.33,1.03 3.64,0 5.92,-1.56 5.92,-5.71 v -4.68 c 0,-3.63 1.14,-1.15 5.31,-1.15 h 17.13 c 3.65,0 7.56,-2.48 7.56,1.15 v 365.79 c 0,4.16 -3.91,3.06 -7.56,3.06 h -27.02 c -3.63,0 -5.42,1.1 -5.42,-3.06 v -111.18 c 0,-3.12 -1.7,-4.69 -5.33,-4.69 -2.1,0 -3.19,0.53 -4.24,1.05 -15.57,10.39 -33.29,15.07 -52.52,15.07 -27.53,0 -50.25,-9.36 -69.48,-29.1 -19.75,-19.75 -28.43,-43.13 -28.43,-70.67 v -78.98 c 0,-27.52 8.66,-50.92 28.41,-70.67 19.76,-19.73 41.93,-29.61 69.46,-29.61" /><path
         id="path32"
         style="fill:#ffffff;fill-opacity:1;fill-rule:nonzero;stroke:none"
         d="m 2848.87,1585 c 0,15.58 6.22,29.08 17.65,40.52 10.91,11.43 24.68,16.63 40.24,16.63 15.61,0 31.58,-5.2 43.02,-16.63 11.41,-11.44 19.09,-24.94 19.09,-40.52 v -17.68 c 0,-3.64 -6.25,-4.43 -9.91,-4.43 h -103.38 c -3.64,0 -6.71,0.79 -6.71,4.43 z m -40,-83.15 c 0,-28.04 11.4,-51.44 31.16,-71.19 19.74,-19.73 43.89,-29.61 71.42,-29.61 30.12,0 57.54,8.31 80.91,25.45 3.13,2.09 3.85,5.22 1.76,7.81 l -15.49,22.35 c -2.08,2.59 -4.64,3.1 -7.23,1.03 -17.67,-12.48 -37.4,-18.71 -59.21,-18.71 -17.16,0 -32.17,6.23 -44.63,18.71 -11.95,11.95 -18.69,26.5 -18.69,44.16 v 16.11 c 0,3.64 3.07,4.93 6.71,4.93 h 141.33 c 3.64,0 1.96,2.86 1.96,6.5 V 1585 c 0,25.98 -7.2,48.31 -25.91,67.02 -18.71,18.7 -40.25,28.06 -66.76,28.06 -25.98,0 -49.44,-9.36 -68.13,-27.54 -18.72,-18.71 -29.2,-41.06 -29.2,-67.54 v -83.15" /><path
         id="path34"
         style="fill:#ffffff;fill-opacity:1;fill-rule:nonzero;stroke:none"
         d="m 6070.38,3053.46 c 28.23,0 52.64,10.42 70.65,30.12 19.42,17.77 30.11,42.22 30.11,68.94 0,28.21 -10.4,52.62 -30.1,70.65 -17.25,18.87 -41.02,28.43 -70.66,28.43 -28.1,0 -51.94,-9.82 -68.98,-28.42 -19.7,-18.03 -30.11,-42.45 -30.11,-70.66 0,-26.73 10.69,-51.18 30.11,-68.95 17.8,-19.42 42.27,-30.11 68.98,-30.11" /><path
         id="path36"
         style="fill:#ffffff;fill-opacity:1;fill-rule:nonzero;stroke:none"
         d="m 6114.99,2922.89 h -87.5 c -29.47,0 -38.62,-17.44 -38.62,-29.44 v -837.3 c 0,-21.19 17.4,-33.26 38.62,-33.26 h 87.5 c 20.25,0 33.88,13.02 33.88,33.26 v 837.3 c 0,19.83 -13,29.44 -33.88,29.44" /><path
         id="path38"
         style="fill:#ffffff;fill-opacity:1;fill-rule:nonzero;stroke:none"
         d="m 7178.87,2622.11 c 0,47.78 16.34,88.1 51.74,123.5 32.27,33.81 71.54,50.24 120.86,50.24 48.96,0 91.09,-16.51 125.06,-50.48 33.98,-33.98 52.34,-74.31 52.34,-123.26 v -58.32 c 0,-1.94 -2.22,-1.63 -2.39,-2.26 -0.38,-0.07 -2.98,1.36 -3.8,1.36 h -341.43 c -2.13,0 -2.42,-1.06 -2.56,-0.96 -0.15,0.19 0.18,-0.26 0.18,1.86 z m 189.4,-622.36 c 103.63,0 196.1,29.26 274.26,86.6 8.66,5.76 14.19,13.88 15.6,22.88 1.33,8.57 -1.17,17.35 -6.46,23.92 l -52.06,74.57 c -8.78,10.99 -18.49,13.29 -25.09,13.29 -6.95,0 -13.87,-2.61 -19.27,-7 -55.54,-39.16 -118.45,-59.01 -186.98,-59.01 -52.39,0 -95.86,18.76 -134.47,57.36 -37.47,37.49 -54.93,81.73 -54.93,135.26 v 53.18 c 0,2.12 -0.33,2.27 -0.23,2.41 0.19,0.15 0.48,-0.32 2.61,-0.32 h 466.68 c 19.84,0 30.94,14.77 30.94,35.66 v 183.56 c 0,90.66 -31.46,168.7 -94.72,231.97 -64.38,64.38 -142.69,97.02 -233.35,97.02 -88.84,0 -168.3,-32.01 -233.39,-95.3 -64.42,-64.44 -98.54,-143.07 -98.54,-233.69 v -274.49 c 0,-96.52 35.06,-176.89 103.82,-245.69 67.84,-67.81 151.55,-102.18 245.58,-102.18" /><path
         id="path40"
         style="fill:#ffffff;fill-opacity:1;fill-rule:nonzero;stroke:none"
         d="m 7301.75,3167.56 c 0.44,0.5 0.84,1.03 1.21,1.58 4.14,6.25 5.13,11.56 5.37,16.08 2,3.75 3.86,7.62 5.7,11.44 2.43,5.07 4.74,9.89 7.16,13.8 1.25,1.04 2.32,1.5 4.22,2.31 2,0.85 4.49,1.92 7.21,3.72 4.83,3.2 7.4,8.33 6.59,14.06 0.22,2.58 4.43,9.51 6.68,13.23 2.44,4.03 4.78,7.87 6.41,11.74 4.45,6.41 5.99,13.47 7.26,19.27 0.92,4.27 1.8,8.3 2.67,9.21 12.18,10.69 16.85,19.3 21.74,30.16 6.45,3.34 11.85,8.79 15.09,12.58 1.61,1.87 2.72,4.12 3.26,6.53 l 0.69,3.18 c 2.45,11.16 4.98,22.67 9.14,31.67 0.01,0.01 0.02,0.03 0.04,0.04 2.22,0.85 4.22,2.23 5.83,4.04 7.5,8.44 11.5,18.41 15.02,27.22 2.6,6.5 5.07,12.68 8.38,16.65 3.79,1.96 10.92,3.81 18.28,3.81 2.62,0 4.97,-0.25 6.35,-0.58 17.04,-4.88 36.3,-11.76 51.08,-31.72 -0.58,-25.01 -23.29,-45.25 -45.28,-64.85 -6.47,-5.77 -12.59,-11.22 -18.22,-16.85 -0.39,-0.39 -0.76,-0.81 -1.12,-1.24 -8.42,-10.55 -16.74,-23.3 -25.55,-36.8 -9.72,-14.88 -19.76,-30.26 -29.39,-41.52 -11.97,-10.63 -25.22,-27.35 -38.05,-43.53 -11.83,-14.91 -24.06,-30.34 -33.17,-38.15 -2.46,-2.11 -4.15,-4.93 -4.86,-8.03 -1.45,-2.47 -5.81,-8.05 -9.79,-12.47 -1.29,-1.46 -2.31,-3.15 -2.96,-4.99 -3.11,-8.72 -4.23,-9.31 -7.93,-11.26 -2.88,-1.52 -6.8,-3.59 -11.28,-7.45 -0.29,-0.24 -0.56,-0.49 -0.81,-0.75 -9.35,-9.34 -19.54,-12.38 -26.06,-7.46 -0.28,0.21 -0.58,0.41 -0.88,0.6 -0.41,0.28 -0.69,0.45 -0.88,1.81 -1.74,12.48 16.58,45.19 40.85,72.92 z m -56.7,-99.63 c 7.22,-5.29 15.8,-8.08 24.87,-8.08 9.65,0 24.29,3.17 39.53,18.15 1.76,1.45 3.29,2.26 5.36,3.36 8.12,4.28 14.9,8.92 21.13,24.89 7.47,8.54 11.26,14.39 13.19,18.54 10.45,9.78 21.87,24.19 33.89,39.36 12.29,15.49 24.98,31.51 35.07,40.26 0.53,0.47 1.04,0.97 1.49,1.5 11.18,12.87 22.02,29.48 32.5,45.53 8.21,12.58 15.98,24.49 23.35,33.81 4.89,4.84 10.47,9.82 16.38,15.08 25.84,23.03 58.01,51.7 55.16,93.19 -0.18,2.6 -1.03,5.11 -2.48,7.28 -19.71,29.6 -45.38,40.24 -70.68,47.47 -15.54,3.88 -38.07,0.18 -50.26,-7.96 -0.82,-0.54 -1.59,-1.17 -2.29,-1.87 -8.2,-8.21 -12.39,-18.65 -16.07,-27.87 -2.38,-5.96 -4.66,-11.64 -7.67,-15.98 -4.2,-2.38 -7.61,-6.02 -10.07,-9.29 -0.55,-0.73 -1.04,-1.51 -1.45,-2.33 -6.09,-12.22 -9.3,-26.46 -12.08,-39.16 -1.19,-1.13 -2.45,-2.2 -3.33,-2.78 -4.99,-0.78 -9.32,-4.04 -11.41,-8.76 l -0.69,-1.56 c -5.13,-11.63 -7.24,-16.44 -16.76,-24.83 -7.8,-7.8 -9.93,-17.56 -11.49,-24.7 -0.75,-3.47 -1.61,-7.4 -2.72,-8.73 -1.19,-1.43 -2.1,-3.07 -2.69,-4.84 -0.53,-1.57 -2.87,-5.44 -4.58,-8.27 -3.65,-6 -7.88,-12.98 -9.87,-20.44 -3.19,-1.54 -7.14,-3.89 -11.38,-8.12 -0.71,-0.71 -1.35,-1.49 -1.91,-2.32 -3.9,-5.87 -7.06,-12.46 -10.11,-18.82 -2.09,-4.35 -4.2,-8.78 -6.59,-12.96 -1.31,-2.27 -2,-4.84 -2,-7.46 0,-1.03 0.08,-1.9 -0.32,-3.17 -10.89,-12.64 -51.53,-62.35 -46.88,-95.57 1.34,-9.59 6.13,-17.37 13.86,-22.55" /><path
         id="path42"
         style="fill:#ffffff;fill-opacity:1;fill-rule:nonzero;stroke:none"
         d="m 4578.87,2892.89 h 200 v -65 c 0,-8.29 6.72,-15 15,-15 h 4.65 c 5.23,0 10.09,2.73 12.81,7.2 43,70.59 72.27,93.25 120.45,93.25 52.62,0 114.07,-26.34 114.07,-100.56 0,-33.62 -17.28,-72.88 -65.98,-72.88 -27.97,0 -60.63,13.95 -60.63,53.23 0,34.98 30.15,48.22 55.97,48.92 5.87,0.17 11.11,3.74 13.4,9.15 2.29,5.41 1.21,11.66 -2.76,15.99 -16.04,17.48 -38.08,19.72 -55.48,19.72 -44.82,0 -83.1,-20.27 -110.71,-58.61 -22.41,-31.12 -35.79,-73.24 -35.79,-112.49 l 1.18,-145.46 -102.01,-113.95 0.83,343.85 c 0,43.69 -21.93,52.64 -54.86,52.64 h -50.14 z m -15,-70 h 65.14 c 23.24,0 29.86,-1.48 29.86,-22.76 V 2054.4 c 0,-20.24 11.66,-31.51 31.93,-31.51 h 87.49 c 20.26,0 30.58,11.27 30.58,31.51 v 509.33 l 3.36,151.91 c 0,56.78 34.67,135.99 109.71,141.02 -20.92,-13.97 -33.11,-36.48 -33.11,-63.53 0,-49 37.47,-83.23 90.83,-83.23 56.52,0 96.09,42.31 96.09,102.88 0,90.19 -72.26,130.56 -143.97,130.56 -54.69,0 -89.51,-26.04 -122.91,-72.35 v 36.9 c 0,8.29 -6.71,15 -15,15 h -230 c -8.28,0 -15,-6.71 -15,-15 v -70 c 0,-8.29 6.72,-15 15,-15" /><path
         id="path44"
         style="fill:#ffffff;fill-opacity:1;fill-rule:nonzero;stroke:none"
         d="m 5657.86,2874.82 c 37.87,3.7 68.9,28.07 88.79,68.07 h 42.22 v -420 h -50.99 c -14.59,100 -54.11,187.37 -120.46,255.98 z m -508.63,-783.55 c 105.62,-64.07 224.84,-96.56 354.35,-96.56 76.28,0 143.87,27.97 201.05,83.32 56.43,56.44 85.04,124.66 85.04,202.77 0,60.41 -18.88,116.52 -56.34,167.05 -39.37,50.61 -90,84.15 -150.38,99.67 l -180.07,48.03 c -49.83,13.57 -73.03,43.32 -73.03,93.59 0,29.32 9.23,52.78 28.23,71.76 20.38,20.4 43.72,29.91 73.45,29.91 56.61,0 110.37,-9.48 159.89,-28.07 67.14,-67.43 105.91,-151.49 118.39,-256.33 0.9,-7.54 7.29,-13.52 14.89,-13.52 h 83.36 c 8.28,0 10.81,7.3 10.81,15.59 v 453.45 c 0,8.29 -2.53,10.96 -10.81,10.96 h -71.17 c -6.07,0 -11.55,-1.65 -13.87,-7.26 -16.35,-39.68 -41.03,-59.08 -73.26,-59.98 -68.14,26.09 -141.53,39.9 -218.23,39.9 -72.32,0 -131.91,-24.19 -182.19,-74.48 -50.29,-50.28 -74.75,-109.75 -74.75,-182.06 0,-55.86 17.2,-106.76 51.13,-151.4 35.07,-46.18 81.12,-76.84 136.68,-91.16 l 181.56,-49.67 c 29.11,-8.57 48.92,-21.66 64.2,-42.49 17.44,-23.77 26.28,-48.49 26.28,-73.49 0,-35.74 -12.95,-66.81 -38.49,-92.33 -25.95,-25.91 -56.16,-38.51 -92.37,-38.51 -99.2,0 -192.46,25.28 -277.2,75.16 -0.29,0.17 -0.59,0.34 -0.91,0.48 -19.39,9.7 -35.54,4.71 -43.85,-11.34 l -44.47,-75.25 c -5.62,-9.79 -7.31,-19.03 -5.03,-27.45 2.25,-8.26 8.12,-15.15 17.11,-20.29" /><path
         id="path46"
         style="fill:#ffffff;fill-opacity:1;fill-rule:nonzero;stroke:none"
         d="m 2678.87,3222.89 h 100 v -130 h -100 z m 120,15 c 0,8.29 -6.71,15 -15,15 h -120 c -8.28,0 -15,-6.71 -15,-15 v -160 c 0,-8.28 6.72,-15 15,-15 h 120 c 8.29,0 15,6.72 15,15 v 160" /><path
         id="path48"
         style="fill:#ffffff;fill-opacity:1;fill-rule:nonzero;stroke:none"
         d="m 2578.87,2854.52 c 104.13,9.19 159.39,20.19 203.71,98.37 h 9.3 c -10.74,-78.06 -15.13,-160 -15.54,-290 h -95.28 c -0.03,110 -1.12,114.23 -5.43,125.51 -0.33,0.87 -0.68,3.04 -1.14,4.4 -14.63,42.04 -61.58,49.04 -95.62,49.82 z m -14.03,-41.78 c 34.54,0 72.15,-2.2 81.25,-28.36 0.55,-1.64 -0.05,-2.96 0.42,-4.18 2.65,-6.92 2.36,-127.3 2.36,-127.31 v -598.67 c 0,-21.2 14.86,-31.33 36.07,-31.33 h 87.51 c 20.25,0 36.42,11.07 36.42,31.33 v 593.67 c 0,145.6 3.52,231.72 16.43,317.77 0.65,4.32 -1.9,8.71 -4.75,12.02 -2.85,3.3 -7,5.21 -11.37,5.21 h -35.49 c -5.56,0 -10.67,-3.08 -13.27,-8 -39.39,-74.65 -81.59,-81.84 -197.81,-91.66 -7.77,-0.65 -13.74,-7.15 -13.74,-14.94 v -40.55 c 0,-8.28 7.69,-15 15.97,-15" /><path
         id="path50"
         style="fill:#ffffff;fill-opacity:1;fill-rule:nonzero;stroke:none"
         d="m 3568.89,2853.29 c 1.62,4.59 0.91,9.69 -1.9,13.66 -2.82,3.98 -7.38,6.34 -12.25,6.34 -39.05,0 -53.39,-0.74 -63.85,-1.28 -5.21,-0.27 -9.22,-0.48 -15.08,-0.48 -5.43,0 -13.07,5.15 -13.07,16.58 0,9.54 7.72,14.81 13.07,14.81 3.54,0 6.36,-1.13 11.48,-2.05 14.43,-2.57 41.29,-7.98 128.83,-7.98 h 5.27 c 83.05,0 112.8,5.35 128.79,7.89 5.93,0.94 9.52,1.83 13.28,1.83 3.98,0 11.3,-5.47 11.3,-14.65 0,-10.89 -7.36,-16.43 -11.3,-16.43 -5.96,0 -9.77,0.22 -14.67,0.5 -9.53,0.53 -22.59,1.26 -59.03,1.26 -6.31,0 -11.95,-3.95 -14.11,-9.89 l -80.32,-221.91 -79.66,61.16 z M 3274.9,2042.15 c 6.51,-19.42 17.64,-29.26 33.11,-29.26 h 70.34 c 14.33,0 27.02,11.31 32.99,29.17 l 288.93,801.21 c 27.7,-0.13 38.63,-0.74 46.84,-1.2 5.46,-0.3 9.72,-0.54 16.35,-0.54 19.94,0 41.3,18.72 41.3,46.58 0,26.81 -21.36,44.81 -41.3,44.81 -6.13,0 -11.36,-1.46 -17.99,-2.51 -15.17,-2.41 -43.4,-7.52 -124.08,-7.52 h -5.27 c -84.89,0 -110.05,5.11 -123.57,7.52 -5.89,1.05 -10.56,2.2 -16.74,2.2 -23.75,0 -43.07,-19.94 -43.07,-44.65 0,-28.78 22.35,-46.51 43.07,-46.51 6.47,0 10.89,0.27 16.62,0.56 7.99,0.42 18.32,0.97 41.08,1.17 l -190.34,-528.1 -211.82,582.02 c -7.3,17.11 -19.44,25.79 -36.08,25.79 h -92.67 c -14.16,0 -24.31,-4.39 -30.17,-13.04 -5.85,-8.63 -6.15,-19.66 -1.07,-32.33 l 303.54,-835.37" /><path
         id="path52"
         style="fill:#ffffff;fill-opacity:1;fill-rule:nonzero;stroke:none"
         d="m 3960.56,2291.77 c 24.55,-64.57 66.78,-115.58 125.57,-151.66 78.62,-48.25 162.11,-55.45 204.88,-55.45 78.46,0 130.17,17.44 161.48,31.03 -45.69,-32.88 -147.65,-90.27 -254.4,-90.27 -99.04,0 -325.36,33.81 -339.11,339.21 z m 18.31,328.78 c 0,47.76 19.45,88.06 54.82,123.45 32.26,33.82 73.11,50.26 122.45,50.26 48.96,0 88.76,-16.52 122.73,-50.51 33.99,-34 50,-74.3 50,-123.2 v -57.66 h -341.38 c -2.13,0 -8.62,0 -8.62,0 z m -24.57,-546.19 c 79.47,-65.25 176.45,-78.94 243.92,-78.94 147.05,0 306.77,106.42 306.77,133.95 0,28.46 -20.3,29.91 -24.35,29.91 -6.01,0 -11.59,-2.69 -21.72,-7.56 -25.02,-12.03 -77.06,-37.06 -167.91,-37.06 -39.6,0 -116.85,6.63 -189.18,51.01 -53.87,33.07 -94.66,80.07 -116.65,139.66 -2.59,12.92 -6.31,26.57 -6.31,40.67 v 53.18 c 0,2.14 2.8,3.09 2.88,3.24 0.2,0.14 3.61,0.47 5.74,0.47 h 466.68 c 19.83,0 34.7,13.15 34.7,34.04 v 183.62 c 0,90.63 -33.35,168.66 -96.6,231.92 -64.38,64.4 -143.64,97.05 -234.31,97.05 -88.85,0 -166.89,-32.02 -231.98,-95.32 -64.41,-64.41 -97.11,-143.02 -97.11,-233.65 v -226.23 c 0,-143.83 42.02,-251.48 125.43,-319.96" /><path
         id="path54"
         style="fill:#ffffff;fill-opacity:1;fill-rule:nonzero;stroke:none"
         d="m 6460.7,2859.06 c 2.67,0 5.3,0.71 7.61,2.07 20.31,11.96 26.61,51.7 35.19,115.57 4.37,32.45 10.34,76.9 18.17,86.4 4.32,5.03 17.11,14.6 29.49,23.85 4.81,3.6 9.89,7.39 15.01,11.3 -0.25,-16.29 -1.39,-38.26 -2.4,-57.43 -6.03,-115.77 -5.6,-167 23.68,-171.62 60.85,-10.73 115.59,-15.95 167.37,-15.95 59.48,0 114.75,7.24 164.46,21.54 -0.52,-2.99 -3.4,-7.86 -10.43,-17.21 -1.74,-2.31 -3.42,-4.55 -4.92,-6.71 -49.03,-44.58 -109.23,-50.62 -161.74,-50.62 -21.73,0 -44.52,1.17 -66.57,2.31 -28.47,1.46 -55.6,2.97 -84.6,2.16 -8.12,-0.23 -12.15,-6.88 -12.15,-14.99 v -90.77 l -100,33.04 v 56.09 c 0,7.84 -6.09,14.35 -13.92,14.95 -10.32,0.79 -20.91,1.19 -31.38,1.19 -25.96,0 -62.37,-2.45 -96.9,-13.26 22.56,40.28 71.87,68.09 124.03,68.09 z m -154.22,-91.43 11.56,-8.29 c 4.15,-2.96 9.56,-3.62 14.31,-1.72 34.31,13.73 74.04,16.61 101.29,16.61 5.06,0 5.23,-0.1 15.23,-0.3 v -447.27 c 0,-93.09 32.25,-170.64 98.73,-237.09 66.43,-66.47 143.96,-98.77 237.05,-98.77 80.66,0 154.03,23.47 217.62,69.43 8.56,5.7 13.73,12.81 15.4,21.12 1.66,8.32 -0.39,16.87 -6.33,25.76 l -49.76,70.36 c -0.24,0.32 -0.48,0.64 -0.74,0.95 -5.24,6.29 -13.71,14.65 -26.58,14.65 -6.25,0 -12.55,-1.95 -20.36,-6.43 -42.78,-26.93 -86.28,-40.59 -129.28,-40.59 -51.25,0 -90.83,17.08 -125.96,52.23 -35.14,35.14 -49.79,77.13 -49.79,128.38 v 448.3 c 20,-0.04 44.57,-1.17 67.64,-2.36 22.42,-1.16 44.38,-2.36 66.89,-2.36 58.76,0 125.89,7.1 182.74,59.74 0.87,0.8 1.34,1.7 1.99,2.68 1.45,2.19 3.05,4.49 4.84,6.89 9.4,12.47 31.29,41.68 1.53,64.58 -3.89,2.98 -9.03,3.89 -13.67,2.43 -49.48,-15.47 -105.35,-23.31 -165.99,-23.31 -49.08,0 -101.09,4.88 -159.13,14.96 -8.43,17.21 -4.26,97.32 -1.97,141.05 3.35,64.35 3.9,86.01 -2.59,96.22 -2.34,3.68 -6.16,6.16 -10.48,6.79 -4.33,0.66 -8.7,-0.64 -11.99,-3.49 -10.93,-9.46 -23.97,-19.2 -35.48,-27.8 -15.54,-11.62 -27.82,-20.8 -34.48,-28.57 -12.56,-15.23 -17.81,-48.59 -24.95,-101.71 -4.06,-30.21 -10.69,-79.48 -18.97,-91.74 -68.95,-2.33 -132.99,-45.41 -153.73,-104.14 -2.23,-6.3 -0.02,-13.31 5.41,-17.19" /><path
         id="path56"
         style="fill:#ffffff;fill-opacity:1;fill-rule:nonzero;stroke:none"
         d="m 1002.85,2590.63 -51.756,-53.27 -42.223,-43.47 v 322.55 c 0,8.29 -7.992,16.45 -16.277,16.45 H 788.871 v 60 h 214.099 z m 485.11,332.26 h -89.21 c -20.43,0 -29.88,-9.27 -29.88,-29.7 v -573.05 c 0,-44.85 -18.13,-84.57 -51.9,-118.35 -30.66,-32.2 -70.3,-48.53 -116.68,-48.53 -47.28,0 -88.14,15.51 -121.41,48.79 -32.84,32.86 -50.01,71.49 -50.01,118.09 v 590.07 c 0,3.98 0.48,6.63 -2.34,9.45 -2.81,2.81 -4.58,3.23 -8.56,3.23 H 772.594 c -8.285,0 -13.723,-4.39 -13.723,-12.68 v -93.77 c 0,-8.28 5.438,-13.55 13.723,-13.55 h 106.277 v -482.75 c 0,-88.37 30.856,-164.68 92.969,-226.8 63.3,-63.26 139.86,-95.33 228.19,-95.33 87.23,0 161.89,32.07 225.16,95.33 63.25,63.27 93.68,139.58 93.68,226.8 v 573.05 c 0,19.83 -10.01,29.7 -30.91,29.7" /><path
         id="path58"
         style="fill:#ffffff;fill-opacity:1;fill-rule:nonzero;stroke:none"
         d="m 2375.62,2315.14 c 0.61,-123.97 5.65,-198.85 15.38,-228.53 2.09,-6.37 8.12,-10.67 14.82,-10.32 28.98,1.1 58.96,6.75 93.05,17.61 v -11.64 c -71.46,-18.78 -133.27,-41.07 -197.33,-64.7 -9.48,33.39 -17.98,73.03 -17.99,120.18 l -2.43,125.44 z m -579.15,-302.25 h 87.49 c 21.21,0 34.91,17.67 34.91,38.86 v 573.08 c 0,44.81 15.9,83.94 48.28,116.33 32.85,32.86 71.21,48.83 117.83,48.83 46.58,0 83.73,-15.97 116.83,-49.08 32.21,-30.67 47.06,-69.72 47.06,-116.08 v -348.41 c 0,-1.42 4.02,-138.97 4.02,-138.97 0,-58.2 12.36,-105.4 24.13,-143.9 1.21,-3.94 4.16,-7.22 7.86,-9.05 2.09,-1.03 4.46,-1.56 6.74,-1.56 1.76,0 3.56,0.31 5.24,0.93 72.12,26.65 140.26,51.81 220.68,72.23 6.65,1.69 11.33,7.68 11.33,14.54 v 44.2 c 0,4.89 -2.38,9.47 -6.37,12.28 -4,2.81 -9.13,3.49 -13.71,1.83 -34.65,-12.48 -64.27,-19.56 -92.12,-21.94 -7.26,35.06 -7.68,111.8 -7.8,228.51 0.73,1.77 0,289.31 0,289.31 0,87.27 -33.1,163.57 -96.36,226.78 -62.09,62.12 -138.91,93.61 -227.28,93.61 -88.39,0 -166.81,-31.49 -228.91,-93.6 -63.26,-63.23 -97.45,-139.53 -97.45,-226.79 v -573.08 c 0,-20.25 17.34,-38.86 37.6,-38.86" /></g></g></svg>